<?xml version="1.0" standalone="no"?>
<!DOCTYPE svg PUBLIC "-//W3C//DTD SVG 20010904//EN"
 "http://www.w3.org/TR/2001/REC-SVG-20010904/DTD/svg10.dtd">
<svg version="1.0" xmlns="http://www.w3.org/2000/svg"
 width="640.000000pt" height="640.000000pt" viewBox="0 0 640.000000 640.000000"
 preserveAspectRatio="xMidYMid meet">
<metadata>
Created by potrace 1.11, written by Peter Selinger 2001-2013
</metadata>
<g transform="translate(0.000000,640.000000) scale(0.100000,-0.100000)"
fill="#000000" stroke="none">
<path d="M3018 6145 c-1 -1 -41 -6 -88 -9 -153 -12 -325 -42 -470 -81 -52 -14
-102 -27 -110 -29 -59 -15 -278 -99 -392 -150 -91 -41 -305 -163 -413 -237
-581 -395 -1003 -982 -1188 -1654 -47 -172 -81 -354 -95 -515 -14 -162 -7
-532 12 -650 3 -14 10 -59 16 -100 60 -385 224 -805 442 -1134 66 -99 101
-149 108 -156 3 -3 21 -25 40 -50 201 -260 511 -534 791 -701 53 -31 82 -47
189 -107 66 -36 239 -110 330 -142 36 -12 74 -26 85 -31 118 -50 437 -115 670
-138 89 -8 434 -7 530 2 45 4 163 19 175 22 3 1 28 5 55 9 28 4 66 12 85 16
19 5 46 11 60 14 88 15 352 95 415 126 11 5 58 25 105 44 190 76 440 225 635
376 598 463 1004 1153 1110 1885 4 22 8 51 10 64 19 115 27 524 12 663 -44
425 -161 791 -377 1183 -38 69 -181 287 -200 305 -3 3 -21 25 -40 50 -103 134
-213 248 -371 389 -92 82 -103 91 -164 136 -22 16 -42 33 -45 36 -3 3 -46 33
-97 67 -168 112 -414 242 -563 297 -109 39 -212 75 -260 89 -137 40 -382 87
-532 102 -61 6 -464 14 -470 9z"/>
</g>
</svg>
